<?xml version="1.0" encoding="utf-8"?>
<!DOCTYPE svg PUBLIC "-//W3C//DTD SVG 1.1//EN" "http://www.w3.org/Graphics/SVG/1.1/DTD/svg11.dtd">

<svg version="1.1" id="Layer_1" xmlns="http://www.w3.org/2000/svg" xmlns:xlink="http://www.w3.org/1999/xlink" x="0px" y="0px"
     width="500.001px" height="122.928px" viewBox="0 0 500.001 122.928" preserveAspectRatio="xMidyMid meet" enable-background="new 0 0 500.001 122.928"
     xml:space="preserve">
<g>
    <path fill="#FFFFFF" d="M160.874,39.585h4.779v6.708c-0.794,0.357-2.189,0.56-3.86,0.56c-5.479,0-8.884-3.564-8.884-9.302
        c0-5.717,3.551-9.269,9.268-9.269c1.996,0,3.576,0.307,5.122,0.995l0.194,0.086l0.838-2.832l-0.143-0.068
        c-1.053-0.508-3.24-1.101-5.942-1.101c-7.69,0-12.883,4.954-12.92,12.327c0,3.602,1.216,6.842,3.337,8.892
        c2.226,2.124,5.143,3.156,8.92,3.156c3.026,0,5.631-0.708,7.284-1.303l0.123-0.044v-11.62h-8.117V39.585z"/>
    <path fill="#FFFFFF" d="M187.134,42.81c-0.571-2.494-1.635-4.052-3.246-4.75c2.654-1.027,4.227-3.268,4.227-6.058
        c0-1.882-0.679-3.517-1.91-4.603c-1.503-1.36-3.64-1.968-6.928-1.968c-2.164,0-4.356,0.185-5.864,0.492l-0.149,0.031v23.538h3.408
        V39.306h2.667c2.668,0.102,3.854,1.26,4.535,4.425c0.737,3.261,1.228,5.008,1.588,5.666l0.053,0.096h3.562l-0.148-0.275
        C188.44,48.307,187.852,45.884,187.134,42.81z M184.707,32.352c0,2.6-2.008,4.28-5.117,4.28h-2.918v-8.252
        c0.507-0.121,1.47-0.238,2.812-0.238C181.867,28.167,184.707,28.918,184.707,32.352z"/>
    <polygon fill="#FFFFFF" points="195.446,38.469 204.585,38.469 204.585,35.584 195.446,35.584 195.446,28.525 205.108,28.525
        205.108,25.606 192.038,25.606 192.038,49.493 205.632,49.493 205.632,46.573 195.446,46.573   "/>
    <path fill="#FFFFFF" d="M219.398,25.606h-3.93l-8.117,23.886h3.536l2.441-7.396h8.07l2.513,7.396h3.638l-8.107-23.76
        L219.398,25.606z M217.347,29.099c0.304,1.181,0.626,2.404,1.079,3.73l2.217,6.523h-6.56l2.219-6.561
        C216.648,31.701,216.984,30.516,217.347,29.099z"/>
    <polygon fill="#FFFFFF" points="225.188,28.561 232.339,28.561 232.339,49.493 235.782,49.493 235.782,28.561 242.968,28.561
        242.968,25.606 225.188,25.606   "/>
    <polygon fill="#FFFFFF" points="248.625,38.469 257.765,38.469 257.765,35.584 248.625,35.584 248.625,28.525 258.288,28.525
        258.288,25.606 245.216,25.606 245.216,49.493 258.812,49.493 258.812,46.573 248.625,46.573   "/>
    <path fill="#FFFFFF" d="M276.255,42.81c-0.572-2.495-1.637-4.054-3.246-4.75c2.654-1.027,4.227-3.268,4.227-6.058
        c0-1.88-0.679-3.516-1.909-4.603c-1.503-1.36-3.641-1.968-6.93-1.968c-2.162,0-4.354,0.185-5.862,0.492l-0.149,0.031v23.538h3.409
        V39.306h2.666c2.669,0.102,3.856,1.26,4.536,4.425c0.736,3.257,1.225,5.004,1.587,5.665l0.053,0.097h3.564l-0.149-0.275
        C277.564,48.318,277.001,45.994,276.255,42.81z M273.829,32.352c0,2.6-2.008,4.28-5.116,4.28h-2.919v-8.252
        c0.508-0.121,1.471-0.238,2.812-0.238C270.989,28.167,273.829,28.918,273.829,32.352z"/>
    <path fill="#FFFFFF" d="M298.709,39.585h4.779v6.708c-0.796,0.356-2.192,0.56-3.862,0.56c-5.478,0-8.881-3.564-8.881-9.302
        c0-5.717,3.55-9.269,9.267-9.269c1.995,0,3.575,0.307,5.121,0.995l0.192,0.086l0.841-2.832l-0.143-0.068
        c-1.051-0.508-3.238-1.101-5.942-1.101c-7.692,0-12.885,4.954-12.919,12.327c0,3.602,1.215,6.842,3.335,8.892
        c2.227,2.124,5.146,3.156,8.922,3.156c3.026,0,5.631-0.708,7.284-1.303l0.123-0.044v-11.62h-8.117V39.585z"/>
    <path fill="#FFFFFF" d="M324.969,42.81c-0.572-2.495-1.636-4.054-3.247-4.75c2.655-1.028,4.229-3.269,4.229-6.058
        c0-1.88-0.679-3.516-1.91-4.603c-1.503-1.36-3.64-1.968-6.928-1.968c-2.164,0-4.356,0.185-5.862,0.492l-0.149,0.031v23.538h3.407
        V39.306h2.666c2.669,0.102,3.856,1.26,4.537,4.425c0.738,3.262,1.228,5.01,1.586,5.665l0.054,0.097h3.563l-0.149-0.275
        C326.281,48.321,325.715,45.996,324.969,42.81z M322.543,32.352c0,2.6-2.009,4.28-5.117,4.28h-2.918v-8.252
        c0.508-0.121,1.471-0.238,2.812-0.238C319.703,28.167,322.543,28.918,322.543,32.352z"/>
    <path fill="#FFFFFF" d="M340.241,25.606h-3.93l-8.116,23.886h3.533l2.443-7.396h8.07l2.511,7.396h3.64l-8.108-23.76L340.241,25.606
        z M338.189,29.097c0.304,1.182,0.626,2.405,1.079,3.732l2.218,6.523h-6.561l2.219-6.561
        C337.49,31.704,337.826,30.518,338.189,29.097z"/>
    <path fill="#FFFFFF" d="M366.195,35.63c0,3.16,0.05,5.917,0.283,8.875c-1.063-2.206-2.338-4.477-3.881-6.916l-7.534-11.896
        l-0.056-0.086h-3.604v23.886h3.233V39.259c0-3.668-0.061-6.35-0.208-9.049c1.004,2.072,2.325,4.402,4.12,7.264l7.519,12.019h3.361
        V25.606h-3.234V35.63z"/>
    <path fill="#FFFFFF" d="M381.006,25.432c-2.142,0-4.322,0.165-6.482,0.491l-0.159,0.023v23.458l0.165,0.019
        c1.641,0.186,3.503,0.28,5.533,0.28c4.637,0,8.278-1.189,10.529-3.438c2.249-2.215,3.439-5.421,3.439-9.273
        c0-3.642-1.136-6.528-3.375-8.58C388.504,26.407,385.346,25.432,381.006,25.432z M380.657,46.888c-0.846,0-2.04-0.016-2.884-0.146
        V28.491c0.668-0.133,1.763-0.279,3.372-0.279c3.095,0,5.476,0.817,7.078,2.429c1.517,1.525,2.276,3.697,2.259,6.455
        C390.482,43.41,386.993,46.888,380.657,46.888z"/>
    <polygon fill="#FFFFFF" points="405.002,49.493 408.411,49.493 408.411,38.852 417.305,38.852 417.305,35.968 408.411,35.968
        408.411,28.525 418.04,28.525 418.04,25.606 405.002,25.606   "/>
    <path fill="#FFFFFF" d="M431.706,25.223c-6.539,0-11.105,5.155-11.105,12.536c0,7.134,4.423,12.117,10.756,12.117
        c3.092,0,5.877-1.142,7.846-3.215c2.134-2.246,3.262-5.481,3.262-9.355C442.464,30.079,438.14,25.223,431.706,25.223z
         M431.565,28.072c3.524,0,7.315,2.933,7.315,9.373c0,6.619-3.69,9.582-7.348,9.582c-4.803,0-7.314-4.698-7.314-9.338
        C424.219,32.902,426.49,28.072,431.565,28.072z"/>
    <path fill="#FFFFFF" d="M459.908,42.81c-0.571-2.495-1.635-4.053-3.245-4.75c2.653-1.027,4.227-3.269,4.227-6.058
        c0-1.88-0.68-3.516-1.912-4.603c-1.501-1.361-3.638-1.968-6.928-1.968c-2.163,0-4.354,0.185-5.862,0.492l-0.149,0.031v23.538h3.409
        V39.306h2.666c2.669,0.102,3.856,1.26,4.535,4.425c0.738,3.262,1.228,5.009,1.589,5.666l0.053,0.096h3.562l-0.149-0.275
        C461.216,48.312,460.627,45.886,459.908,42.81z M457.481,32.352c0,2.6-2.008,4.28-5.115,4.28h-2.919v-8.252
        c0.507-0.121,1.469-0.238,2.811-0.238C454.641,28.167,457.481,28.918,457.481,32.352z"/>
    <path fill="#FFFFFF" d="M481.345,25.606h-4.26l-7.244,8.899c-0.604,0.778-1.136,1.496-1.619,2.184V25.606h-3.409v23.886h3.409
        v-9.082l2.025-2.346l7.664,11.427h4.046l-9.294-13.709L481.345,25.606z"/>
    <path fill="#FFFFFF" d="M491.027,35.806c-3.448-1.334-4.557-2.395-4.557-4.362c0-1.661,1.312-3.337,4.244-3.337
        c1.961,0,3.463,0.595,4.376,1.094l0.195,0.106l0.956-2.833l-0.134-0.076c-0.775-0.438-2.495-1.175-5.288-1.175
        c-4.587,0-7.791,2.702-7.791,6.57c0,3.133,2.012,5.307,6.328,6.838c3.144,1.208,4.312,2.427,4.312,4.5
        c0,2.36-1.814,3.825-4.734,3.825c-1.814,0-3.812-0.563-5.346-1.508l-0.206-0.127l-0.876,2.912l0.115,0.077
        c1.36,0.907,3.927,1.566,6.103,1.566c6.215,0,8.42-3.764,8.42-6.988C497.146,39.535,495.373,37.483,491.027,35.806z"/>
</g>
<path fill="#FFFFFF" d="M173.188,84.838c-0.918-3.345-2.23-5.2-4.255-6.016l-0.233-0.094v-0.664l0.246-0.088
    c2.823-1.022,5.671-3.863,5.671-7.903c0-2.897-0.99-5.158-2.943-6.72c-2.23-1.765-5.502-2.553-10.606-2.553
    c-3.536,0-7.054,0.233-9.72,0.64v32.372h6.763V80.638h2.659c3.43,0.057,4.888,1.486,5.784,5.666c0.941,3.907,1.681,6.433,2.2,7.509
    h6.964c-0.459-1.197-1.036-3.377-1.689-5.843C173.754,86.932,173.471,85.863,173.188,84.838z M161.466,75.915h-3.355v-9.932
    l0.306-0.056c0.945-0.172,2.089-0.256,3.497-0.256h0.005c3.827,0.056,5.935,1.849,5.935,5.048
    C167.854,73.924,165.407,75.915,161.466,75.915z"/>
<path fill="#FFFFFF" d="M195.032,60.502c-9.382,0-15.936,7.063-15.936,17.178c0,9.978,6.184,16.681,15.389,16.681
    c9.77,0,16.083-6.781,16.083-17.276C210.569,68.83,205.765,60.502,195.032,60.502z M194.884,89.09c-5.18,0-8.526-4.537-8.526-11.56
    c0-7.033,3.406-11.759,8.475-11.759c4.991,0,8.477,4.754,8.477,11.561C203.31,84.475,200.002,89.09,194.884,89.09z"/>
<path fill="#FFFFFF" d="M240.41,84.392c0-3.852-2.388-6.803-6.388-7.894l-0.274-0.074V75.78l0.243-0.09
    c3.352-1.236,5.274-3.718,5.274-6.811c0-2.668-1.396-4.941-3.83-6.234c-2.276-1.348-4.906-1.845-9.719-1.845
    c-3.458,0-7.332,0.262-9.423,0.631v32.282c1.368,0.185,3.986,0.448,7.832,0.448c6.215,0,10.45-0.966,12.945-2.952
    C239.254,89.443,240.41,87.084,240.41,84.392z M223.058,65.825l0.315-0.05c0.561-0.086,1.512-0.2,3.288-0.2
    c3.704,0,5.743,1.508,5.743,4.248c0,2.818-2.426,4.501-6.488,4.501h-2.858V65.825z M226.363,89.29c-1.283,0-2.21,0-2.981-0.104
    l-0.323-0.043V78.998h2.956c4.566,0,7.185,1.857,7.185,5.096C233.199,87.347,230.644,89.29,226.363,89.29z"/>
<path fill="#FFFFFF" d="M260.729,60.502c-9.382,0-15.935,7.063-15.935,17.178c0,9.978,6.184,16.681,15.387,16.681
    c9.771,0,16.085-6.781,16.085-17.276C276.266,68.83,271.462,60.502,260.729,60.502z M260.58,89.09c-5.182,0-8.529-4.537-8.529-11.56
    c0-7.033,3.406-11.759,8.476-11.759c4.992,0,8.478,4.754,8.478,11.561C269.004,84.475,265.697,89.09,260.58,89.09z"/>
<polygon fill="#FFFFFF" points="287.058,93.812 293.921,93.812 293.921,66.668 303.068,66.668 303.068,61.049 278.062,61.049
    278.062,66.668 287.058,66.668 "/>
<rect x="307.85" y="61.049" fill="#FFFFFF" width="6.862" height="32.764"/>
<path fill="#FFFFFF" d="M344.862,67.131l1.361-5.308c-1.397-0.636-4.166-1.321-7.818-1.321c-10.722,0-17.924,7.004-17.924,17.427
    c0,10.136,6.581,16.432,17.178,16.432c3.613,0,6.642-0.651,8.181-1.334l-1.005-5.198c-1.668,0.582-4.022,0.962-6.032,0.962
    c-6.854,0-11.11-4.333-11.11-11.309c0-7.069,4.237-11.46,11.059-11.46C340.908,66.021,342.962,66.395,344.862,67.131z"/>
<path fill="#FFFFFF" d="M364.139,74.65c-4.492-1.705-6.46-2.7-6.46-5.073c0-1.663,1.374-3.605,5.245-3.605
    c2.365,0,4.64,0.483,6.769,1.44l1.487-5.381c-2.376-1.014-5.103-1.529-8.106-1.529c-7.36,0-12.307,3.907-12.307,9.722
    c0,4.323,2.927,7.443,8.947,9.542c3.719,1.328,5.871,2.586,5.871,5.074c0,2.506-2.128,4.002-5.692,4.002
    c-3.594,0-6.67-1.215-8.155-1.922l-1.357,5.531c1.857,0.944,5.375,1.909,9.065,1.909c9.694,0,13.149-5.2,13.149-10.067
    C372.595,79.785,369.986,76.812,364.139,74.65z"/>
<path fill="#FFFFFF" d="M411.352,67.131l1.36-5.308c-1.396-0.636-4.164-1.321-7.818-1.321c-10.72,0-17.922,7.004-17.922,17.427
    c0,10.136,6.581,16.432,17.177,16.432c3.613,0,6.642-0.651,8.182-1.334l-1.006-5.198c-1.668,0.582-4.022,0.962-6.033,0.962
    c-6.853,0-11.11-4.333-11.11-11.309c0-7.069,4.238-11.46,11.06-11.46C407.398,66.021,409.452,66.395,411.352,67.131z"/>
<polygon fill="#FFFFFF" points="424.965,61.049 418.101,61.049 418.101,93.812 438.287,93.812 438.287,88.193 424.965,88.193 "/>
<path fill="#FFFFFF" d="M455.224,89.039c-4.153,0-6.439-3.223-6.439-9.072V61.049h-6.86V79.37c0,9.947,4.392,14.99,13.052,14.99
    c8.896,0,13.598-5.149,13.598-14.892v-18.42h-6.812v18.918C461.762,87.465,458.206,89.039,455.224,89.039z"/>
<path fill="#FFFFFF" d="M500.001,84.392c0-3.851-2.39-6.803-6.39-7.894l-0.273-0.074V75.78l0.244-0.09
    c3.352-1.235,5.275-3.717,5.275-6.811c0-2.667-1.396-4.94-3.831-6.234c-2.276-1.348-4.906-1.845-9.717-1.845
    c-3.458,0-7.332,0.262-9.424,0.631v32.282c1.366,0.185,3.983,0.448,7.832,0.448c6.214,0,10.447-0.966,12.941-2.952
    C498.844,89.443,500.001,87.084,500.001,84.392z M482.65,65.825l0.315-0.05c0.562-0.086,1.514-0.2,3.285-0.2
    c3.704,0,5.744,1.508,5.744,4.248c0,2.818-2.425,4.501-6.487,4.501h-2.857V65.825z M485.955,89.29c-1.283,0-2.211,0-2.982-0.104
    l-0.322-0.043V78.998h2.955c4.566,0,7.185,1.857,7.185,5.096C492.79,87.347,490.235,89.29,485.955,89.29z"/>
<path fill="#545454" d="M68.864,8.271c-29.331,0-53.193,23.862-53.193,53.193s23.862,53.193,53.193,53.193
    s53.193-23.862,53.193-53.193S98.195,8.271,68.864,8.271z M68.864,100.959c-21.812,0-39.495-17.683-39.495-39.495
    c0-21.812,17.683-39.495,39.495-39.495s39.495,17.683,39.495,39.495C108.359,83.276,90.676,100.959,68.864,100.959z"/>
<path fill="#FFFFFF" d="M136.814,57.589L106.162,3.868C104.943,1.732,101.935,0,99.477,0H38.251c-2.458,0-5.467,1.73-6.685,3.866
    L0.914,57.577c-1.218,2.136-1.218,5.627,0,7.762l30.652,53.721c1.218,2.136,4.227,3.868,6.685,3.868h61.225
    c2.458,0,5.467-1.73,6.685-3.866l30.652-53.712C138.032,63.215,138.032,59.724,136.814,57.589z M68.864,118.178
    c-31.322,0-56.714-25.392-56.714-56.714c0-31.323,25.392-56.714,56.714-56.714c31.323,0,56.714,25.391,56.714,56.714
    C125.578,92.786,100.187,118.178,68.864,118.178z"/>
</svg>
