<svg style="display: none;"><symbol width="100%" viewBox="0 0 67.223 60" id="shape-ggfrc-logo-white"><title>ggfrc-logo-white</title> <path fill="#545454" d="M33.612,4.037C19.295,4.037,7.648,15.684,7.648,30s11.647,25.963,25.963,25.963
	c14.316,0,25.963-11.647,25.963-25.963S47.928,4.037,33.612,4.037z M33.612,49.277c-10.646,0-19.277-8.631-19.277-19.277
	s8.631-19.277,19.277-19.277c10.646,0,19.277,8.631,19.277,19.277S44.258,49.277,33.612,49.277z"/> <path fill="#FFFFFF" d="M66.778,28.108L51.816,1.888C51.222,0.846,49.753,0,48.554,0H18.67c-1.2,0-2.668,0.845-3.263,1.887
	L0.446,28.103c-0.594,1.042-0.594,2.747,0,3.789l14.961,26.22C16.002,59.154,17.47,60,18.67,60h29.884
	c1.2,0,2.668-0.845,3.263-1.887l14.961-26.216C67.372,30.854,67.372,29.151,66.778,28.108z M33.612,57.682
	C18.324,57.682,5.93,45.288,5.93,30c0-15.289,12.394-27.682,27.682-27.682S61.293,14.711,61.293,30
	C61.293,45.288,48.9,57.682,33.612,57.682z"/> </symbol></svg>